<svg xmlns="http://www.w3.org/2000/svg" viewBox="0 0 64 64" role="img" aria-labelledby="title desc">
  <title id="title">Bansal Lights favicon</title>
  <desc id="desc">Stylised LED strip icon with a glowing accent</desc>
  <defs>
    <linearGradient id="bg" x1="0%" y1="0%" x2="100%" y2="100%">
      <stop offset="0%" stop-color="#1d4ed8" />
      <stop offset="100%" stop-color="#0f172a" />
    </linearGradient>
    <linearGradient id="glow" x1="0%" y1="0%" x2="100%" y2="0%">
      <stop offset="0%" stop-color="#fde047" />
      <stop offset="100%" stop-color="#f97316" />
    </linearGradient>
  </defs>
  <rect width="64" height="64" rx="14" fill="url(#bg)" />
  <g fill="none" stroke-linecap="round" stroke-linejoin="round">
    <path
      d="M16 28h24a6 6 0 0 1 6 6v6a6 6 0 0 1-6 6H20"
      stroke="#e0f2fe"
      stroke-width="6"
    />
    <path
      d="M20 24h24c4.418 0 8 3.582 8 8v6c0 4.418-3.582 8-8 8H20a8 8 0 0 1-8-8v-6a8 8 0 0 1 8-8z"
      stroke="url(#glow)"
      stroke-width="4"
    />
    <path d="M20 20h24" stroke="#f8fafc" stroke-width="4" />
  </g>
  <circle cx="22" cy="32" r="3" fill="#f8fafc" />
  <circle cx="32" cy="32" r="3" fill="#f8fafc" />
  <circle cx="42" cy="32" r="3" fill="#f8fafc" />
</svg>
